<svg xmlns="http://www.w3.org/2000/svg" width="960" height="540" viewBox="0 0 960 540" role="img" aria-labelledby="ds-ko-title ds-ko-subtitle">
  <title id="ds-ko-title">에이전트형 IDE 비교 시나리오</title><desc id="ds-ko-subtitle">Four IDE workflows operate on the same note application.</desc>
  <style>.ds-ko-bg{fill:#0d1117}.ds-ko-card{fill:url(#ds-ko-s);stroke:#252d38;stroke-width:1}.ds-ko-lead{fill:url(#ds-ko-sl);stroke:#33404f;stroke-width:1}.ds-ko-inner{fill:#1e2530;stroke:#252d38;stroke-width:1}.ds-ko-text{font:600 16px Pretendard,system-ui,sans-serif;fill:#f0f6fc}.ds-ko-sub{font:400 11.5px Pretendard,system-ui,sans-serif;fill:#939da8}.ds-ko-name{font:500 13px Pretendard,system-ui,sans-serif;fill:#c3ccd6}.ds-ko-label{font:400 11px Pretendard,system-ui,sans-serif;fill:#939da8}.ds-ko-value{font:400 10.5px ui-monospace,SFMono-Regular,Menlo,monospace;fill:#69717a}.ds-ko-flow{fill:none;stroke:#7c9fff;stroke-width:1.6;stroke-linecap:round;stroke-linejoin:round;stroke-dasharray:5 6;animation:ds-ko-dash 2s linear infinite}.ds-ko-top{stroke:rgba(255,255,255,.05);stroke-width:1}@keyframes ds-ko-dash{to{stroke-dashoffset:-22}}@media (prefers-reduced-motion:reduce){.ds-ko-flow{animation:none}}</style>
  <defs><filter id="ds-ko-sh" x="-30%" y="-30%" width="160%" height="170%"><feDropShadow dx="-3" dy="10" stdDeviation="9" flood-color="#000" flood-opacity=".5"/></filter><linearGradient id="ds-ko-s" x1="0" y1="0" x2=".3" y2="1"><stop offset="0" stop-color="#1b222c"/><stop offset="1" stop-color="#151b23"/></linearGradient><linearGradient id="ds-ko-sl" x1="0" y1="0" x2=".3" y2="1"><stop offset="0" stop-color="#222b38"/><stop offset="1" stop-color="#19202a"/></linearGradient><marker id="ds-ko-ta" viewBox="0 0 8 8" refX="7" refY="4" markerWidth="6" markerHeight="6" orient="auto-start-reverse"><path d="M0,0 L8,4 L0,8 z" fill="#7c9fff"/></marker></defs>
  <rect width="960" height="540" fill="#0d1117"/><text class="ds-ko-text" x="32" y="38">에이전트형 IDE 비교 시나리오</text><text class="ds-ko-sub" x="32" y="58">하나의 노트 서비스 · 네 가지 에이전트 하네스</text>
  <g filter="url(#ds-ko-sh)"><rect class="ds-ko-card" x="32" y="160" width="192" height="224" rx="12"/><path class="ds-ko-top" d="M44 161H212"/><text class="ds-ko-name" x="52" y="200">Kiro</text><text class="ds-ko-label" x="52" y="224">명세 주도 태그 기능</text><rect class="ds-ko-inner" x="52" y="248" width="152" height="34" rx="8"/><text class="ds-ko-label" x="66" y="269">요구사항</text><rect class="ds-ko-inner" x="52" y="290" width="152" height="34" rx="8"/><text class="ds-ko-label" x="66" y="311">설계 → 코드</text><text class="ds-ko-value" x="52" y="360">요구사항.md</text></g>
  <g filter="url(#ds-ko-sh)"><rect class="ds-ko-card" x="248" y="160" width="192" height="224" rx="12"/><path class="ds-ko-top" d="M260 161H428"/><text class="ds-ko-name" x="268" y="200">Copilot</text><text class="ds-ko-label" x="268" y="224">네 가지 인터페이스</text><rect class="ds-ko-inner" x="268" y="248" width="152" height="34" rx="8"/><text class="ds-ko-label" x="282" y="269">Agent + Inline</text><rect class="ds-ko-inner" x="268" y="290" width="152" height="34" rx="8"/><text class="ds-ko-label" x="282" y="311">Cloud agent</text><text class="ds-ko-value" x="268" y="360">pinned 불리언</text></g>
  <g filter="url(#ds-ko-sh)"><rect class="ds-ko-card" x="464" y="160" width="192" height="224" rx="12"/><path class="ds-ko-top" d="M476 161H644"/><text class="ds-ko-name" x="484" y="200">Antigravity</text><text class="ds-ko-label" x="484" y="224">병렬 위임</text><rect class="ds-ko-inner" x="484" y="248" width="152" height="34" rx="8"/><text class="ds-ko-label" x="498" y="269">Manager View</text><rect class="ds-ko-inner" x="484" y="290" width="152" height="34" rx="8"/><text class="ds-ko-label" x="498" y="311">세 가지 작업</text><text class="ds-ko-value" x="484" y="360">DTO + 검색 + 문서</text></g>
  <g filter="url(#ds-ko-sh)"><rect class="ds-ko-lead" x="680" y="160" width="248" height="224" rx="12"/><path class="ds-ko-top" d="M692 161H916"/><text class="ds-ko-name" x="700" y="200">Junie</text><text class="ds-ko-label" x="700" y="224">JVM 리팩터링 모드</text><rect class="ds-ko-inner" x="700" y="248" width="208" height="34" rx="8"/><text class="ds-ko-label" x="714" y="269">Auto · Think · Brave</text><rect class="ds-ko-inner" x="700" y="290" width="208" height="34" rx="8"/><text class="ds-ko-label" x="714" y="311">서비스 분리</text><text class="ds-ko-value" x="700" y="360">NoteQueryService</text></g>
  <path class="ds-ko-flow" d="M224 412H680" marker-end="url(#ds-ko-ta)"/><text class="ds-ko-label" x="32" y="488">모든 시나리오가 같은 Kotlin 1.9 / Spring Boot 3.5 애플리케이션을 공유</text><text class="ds-ko-value" x="928" y="488" text-anchor="end">하나의 코드베이스</text>
</svg>
